<svg xmlns="http://www.w3.org/2000/svg" width="68" height="58" fill="none" viewBox="0 0 68 58"><path fill="#9bb537" d="M13 23h42v32H13Z"/><path fill="#9bb537" d="M30 21c0 8.284-6.716 15-15 15S0 29.284 0 21 6.716 6 15 6s15 6.716 15 15"/><path fill="#9bb537" d="M49 15c0 8.284-6.716 15-15 15s-15-6.716-15-15S25.716 0 34 0s15 6.716 15 15"/><path fill="#9bb537" d="M68 21c0 8.284-6.716 15-15 15s-15-6.716-15-15S44.716 6 53 6s15 6.716 15 15"/><path fill="#f8f8f8" d="M13 53h42v3.772C55 57.45 54.412 58 53.687 58H14.313C13.589 58 13 57.45 13 56.772ZM26 18.964c0-1.085.672-1.964 1.5-1.964s1.5.88 1.5 1.964v9.072C29 29.121 28.328 30 27.5 30s-1.5-.88-1.5-1.964ZM31 18.964C31 17.879 32.12 17 33.5 17s2.5.88 2.5 1.964v9.072C36 29.121 34.88 30 33.5 30s-2.5-.88-2.5-1.964ZM38 18.964c0-1.085.895-1.964 2-1.964s2 .88 2 1.964v9.072C42 29.121 41.105 30 40 30s-2-.88-2-1.964Z"/><path fill="#050505" fill-rule="evenodd" d="M51.084 5.675a15 15 0 0 1 1.591-.082c6.732 0 12.435 4.373 14.388 10.414q-.785.083-1.591.083c-6.732 0-12.435-4.373-14.388-10.415" clip-rule="evenodd"/></svg>