<svg xmlns="http://www.w3.org/2000/svg" width="82" height="15" fill="none" viewBox="0 0 82 15"><path fill="#9bb537" d="M5.708 2.773v1.59H.691v-1.59ZM1.93.682h2.057v8.193q0 .415.125.636.13.216.34.296t.466.08q.194 0 .353-.029.165-.028.25-.051l.346 1.608q-.165.057-.471.125-.301.068-.739.08a3.35 3.35 0 0 1-1.392-.233 2.17 2.17 0 0 1-.983-.807q-.358-.546-.352-1.364ZM9.3 11.676a3.6 3.6 0 0 1-1.494-.295q-.66-.302-1.046-.887-.38-.584-.38-1.443 0-.739.272-1.221.273-.483.744-.773a3.8 3.8 0 0 1 1.063-.438 9 9 0 0 1 1.233-.222q.767-.079 1.244-.141.478-.069.693-.205.222-.142.222-.437V5.58q0-.642-.38-.995-.382-.352-1.097-.352-.756 0-1.2.33-.436.33-.59.778l-1.92-.273q.225-.795.75-1.33.522-.54 1.278-.806a4.9 4.9 0 0 1 1.67-.273q.631 0 1.256.148.625.147 1.142.488.517.336.83.915.318.58.318 1.45v5.84H11.93v-1.199h-.068a2.5 2.5 0 0 1-.528.682 2.5 2.5 0 0 1-.847.506q-.507.187-1.188.187m.534-1.511q.619 0 1.074-.245.455-.25.699-.659.25-.409.25-.892V7.341a1 1 0 0 1-.33.148 5 5 0 0 1-.511.12q-.284.05-.563.09-.277.04-.483.068-.46.063-.824.205a1.37 1.37 0 0 0-.574.398q-.21.25-.21.647 0 .569.415.858.415.29 1.057.29m12.4-5.085-1.875.204a1.5 1.5 0 0 0-.278-.534 1.4 1.4 0 0 0-.523-.403 1.9 1.9 0 0 0-.807-.153q-.642 0-1.08.278-.432.278-.426.721a.76.76 0 0 0 .278.62q.29.239.955.392l1.489.318q1.238.267 1.84.846.608.58.614 1.517a2.37 2.37 0 0 1-.483 1.455q-.471.625-1.312.977-.841.353-1.932.353-1.602 0-2.58-.671-.977-.676-1.165-1.88l2.006-.194q.136.59.58.892.443.3 1.153.301.733 0 1.176-.3.45-.303.45-.745a.78.78 0 0 0-.29-.62q-.285-.243-.887-.374l-1.489-.313q-1.255-.262-1.858-.88-.602-.626-.596-1.58-.006-.807.437-1.398.45-.596 1.245-.92.801-.33 1.846-.33 1.535 0 2.415.654.885.652 1.097 1.767m5.601-2.307v1.59h-5.017v-1.59ZM24.057.682h2.057v8.193q0 .415.124.636.132.216.341.296t.466.08q.194 0 .353-.029.165-.028.25-.051l.346 1.608q-.165.057-.471.125-.301.068-.74.08a3.35 3.35 0 0 1-1.392-.233 2.17 2.17 0 0 1-.983-.807q-.357-.546-.351-1.364Zm6.137 14.09q-.42 0-.779-.068a3 3 0 0 1-.563-.148l.478-1.601q.45.13.801.124a.98.98 0 0 0 .62-.221q.272-.21.46-.705l.176-.471-3.165-8.91h2.182l2.011 6.592h.09l2.018-6.591h2.188l-3.495 9.784a3.9 3.9 0 0 1-.648 1.188 2.6 2.6 0 0 1-.989.761q-.578.267-1.385.267"/><path fill="#050505" d="M41.852 2.773v1.59h-5.017v-1.59ZM38.074.682h2.057v8.193q0 .415.124.636.13.216.341.296.21.08.466.08.193 0 .352-.029.166-.028.25-.051l.347 1.608q-.165.057-.472.125-.3.068-.738.08a3.35 3.35 0 0 1-1.392-.233 2.17 2.17 0 0 1-.983-.807q-.358-.546-.352-1.364ZM42.932 11.5V2.773h1.994v1.455h.091q.24-.757.819-1.165.585-.415 1.335-.415.17 0 .38.017.216.01.358.04v1.892a2 2 0 0 0-.415-.08 4 4 0 0 0-.54-.04 2.1 2.1 0 0 0-1.011.244q-.443.24-.698.665t-.256.983v5.13Zm9.208.17q-1.312 0-2.267-.545a3.7 3.7 0 0 1-1.46-1.557q-.511-1.011-.511-2.38 0-1.347.51-2.364a3.87 3.87 0 0 1 1.443-1.59q.928-.575 2.177-.575.807 0 1.523.261.721.255 1.273.796.555.54.875 1.375.318.83.318 1.977v.63h-7.153V6.313h5.182a2.2 2.2 0 0 0-.256-1.051 1.86 1.86 0 0 0-.699-.733 1.97 1.97 0 0 0-1.034-.267q-.63 0-1.108.307-.478.3-.745.796a2.3 2.3 0 0 0-.267 1.074v1.21q0 .76.279 1.307.278.54.778.83.5.283 1.17.283.45 0 .813-.125.364-.13.63-.38.268-.25.404-.62l1.92.216q-.18.761-.693 1.33a3.4 3.4 0 0 1-1.295.875q-.79.306-1.807.306m7.492.006a3.6 3.6 0 0 1-1.494-.295q-.66-.302-1.045-.887-.381-.584-.381-1.443 0-.739.272-1.221.273-.483.745-.773a3.8 3.8 0 0 1 1.063-.438 9 9 0 0 1 1.233-.222q.765-.079 1.244-.141.477-.069.693-.205.22-.142.221-.437V5.58q0-.642-.38-.995-.381-.352-1.097-.352-.755 0-1.199.33-.437.33-.59.778l-1.921-.273q.226-.795.75-1.33.522-.54 1.278-.806a4.9 4.9 0 0 1 1.67-.273q.632 0 1.256.148.626.147 1.142.488.518.336.83.915.318.58.318 1.45v5.84h-1.977v-1.199h-.068a2.5 2.5 0 0 1-.528.682 2.5 2.5 0 0 1-.847.506q-.505.187-1.188.187m.534-1.511q.62 0 1.074-.245.454-.25.7-.659.25-.409.25-.892V7.341a1 1 0 0 1-.33.148 5 5 0 0 1-.511.12q-.285.05-.563.09-.279.04-.483.068-.46.063-.824.205a1.37 1.37 0 0 0-.574.398q-.21.25-.21.647 0 .569.414.858.416.29 1.057.29m9.86-7.392v1.59H65.01v-1.59ZM66.248.682h2.057v8.193q0 .415.125.636.13.216.34.296t.467.08q.192 0 .352-.029.165-.028.25-.051l.346 1.608a5 5 0 0 1-.472.125q-.3.068-.738.08a3.35 3.35 0 0 1-1.392-.233 2.17 2.17 0 0 1-.983-.807q-.357-.546-.352-1.364ZM77.879 5.08l-1.875.204a1.5 1.5 0 0 0-.278-.534 1.4 1.4 0 0 0-.523-.403 1.9 1.9 0 0 0-.807-.153q-.642 0-1.08.278-.431.278-.425.721a.76.76 0 0 0 .278.62q.29.239.955.392l1.488.318q1.24.267 1.841.846.608.58.614 1.517a2.37 2.37 0 0 1-.483 1.455q-.472.625-1.313.977-.84.353-1.931.353-1.604 0-2.58-.671-.978-.676-1.165-1.88l2.006-.194q.136.59.58.892.443.3 1.153.301.732 0 1.176-.3.45-.303.449-.745a.78.78 0 0 0-.29-.62q-.285-.243-.886-.374l-1.489-.313q-1.255-.262-1.858-.88-.602-.626-.597-1.58-.005-.807.438-1.398.45-.596 1.244-.92.801-.33 1.847-.33 1.534 0 2.415.654.886.652 1.096 1.767m2.51 6.545q-.516 0-.886-.364a1.18 1.18 0 0 1-.364-.886q-.005-.511.364-.875.37-.364.887-.364.5 0 .87.364a1.195 1.195 0 0 1 .199 1.506q-.172.284-.456.454-.278.165-.613.165"/></svg>