<svg width="82" height="15" viewBox="0 0 82 15" fill="none" xmlns="http://www.w3.org/2000/svg">
<path d="M5.70821 2.77273V4.36364H0.691165V2.77273H5.70821ZM1.9298 0.681818H3.98662V8.875C3.98662 9.15152 4.02829 9.36364 4.11162 9.51136C4.19874 9.6553 4.31238 9.75379 4.45253 9.80682C4.59268 9.85985 4.74798 9.88636 4.91844 9.88636C5.04723 9.88636 5.16465 9.87689 5.27071 9.85795C5.38056 9.83902 5.46389 9.82197 5.52071 9.80682L5.8673 11.4148C5.75745 11.4527 5.60026 11.4943 5.39571 11.5398C5.19495 11.5852 4.94874 11.6117 4.65707 11.6193C4.14192 11.6345 3.67791 11.5568 3.26503 11.3864C2.85215 11.2121 2.5245 10.9432 2.28207 10.5795C2.04344 10.2159 1.92601 9.76136 1.9298 9.21591V0.681818ZM9.29975 11.6761C8.74671 11.6761 8.24861 11.5777 7.80543 11.3807C7.36603 11.1799 7.01755 10.8845 6.75997 10.4943C6.50618 10.1042 6.37929 9.62311 6.37929 9.05114C6.37929 8.55871 6.4702 8.15152 6.65202 7.82955C6.83384 7.50758 7.08194 7.25 7.39634 7.05682C7.71073 6.86364 8.0649 6.7178 8.45884 6.61932C8.85656 6.51705 9.26755 6.44318 9.69179 6.39773C10.2032 6.3447 10.6179 6.29735 10.9361 6.25568C11.2543 6.21023 11.4854 6.14205 11.6293 6.05114C11.777 5.95644 11.8509 5.81061 11.8509 5.61364V5.57955C11.8509 5.15152 11.724 4.82008 11.4702 4.58523C11.2164 4.35038 10.8509 4.23295 10.3736 4.23295C9.86982 4.23295 9.4702 4.3428 9.17475 4.5625C8.88308 4.7822 8.68611 5.04167 8.58384 5.34091L6.66338 5.06818C6.8149 4.53788 7.0649 4.0947 7.41338 3.73864C7.76187 3.37879 8.188 3.10985 8.69179 2.93182C9.19558 2.75 9.7524 2.65909 10.3622 2.65909C10.7827 2.65909 11.2013 2.70833 11.6179 2.80682C12.0346 2.9053 12.4153 3.06818 12.76 3.29545C13.1047 3.51894 13.3812 3.82386 13.5895 4.21023C13.8016 4.59659 13.9077 5.07955 13.9077 5.65909V11.5H11.9304V10.3011H11.8622C11.7372 10.5436 11.5611 10.7708 11.3338 10.983C11.1104 11.1913 10.8282 11.3598 10.4872 11.4886C10.1501 11.6136 9.75429 11.6761 9.29975 11.6761ZM9.83384 10.1648C10.2467 10.1648 10.6047 10.0833 10.9077 9.92045C11.2107 9.75379 11.4437 9.53409 11.6066 9.26136C11.7732 8.98864 11.8566 8.69129 11.8566 8.36932V7.34091C11.7922 7.39394 11.6823 7.44318 11.527 7.48864C11.3755 7.53409 11.205 7.57386 11.0157 7.60795C10.8263 7.64205 10.6388 7.67235 10.4532 7.69886C10.2675 7.72538 10.1066 7.74811 9.9702 7.76705C9.66338 7.80871 9.38876 7.87689 9.14634 7.97159C8.90391 8.06629 8.71262 8.19886 8.57247 8.36932C8.43232 8.53598 8.36225 8.75189 8.36225 9.01705C8.36225 9.39583 8.5005 9.68182 8.77702 9.875C9.05353 10.0682 9.40581 10.1648 9.83384 10.1648ZM22.2336 5.07955L20.3586 5.28409C20.3056 5.0947 20.2128 4.91667 20.0802 4.75C19.9514 4.58333 19.7772 4.44886 19.5575 4.34659C19.3378 4.24432 19.0688 4.19318 18.7507 4.19318C18.3226 4.19318 17.9628 4.28598 17.6711 4.47159C17.3832 4.6572 17.2412 4.89773 17.245 5.19318C17.2412 5.44697 17.334 5.65341 17.5234 5.8125C17.7166 5.97159 18.0347 6.10227 18.4779 6.20455L19.9666 6.52273C20.7923 6.70076 21.406 6.98295 21.8075 7.36932C22.2128 7.75568 22.4173 8.26136 22.4211 8.88636C22.4173 9.43561 22.2563 9.92045 21.9382 10.3409C21.6238 10.7576 21.1863 11.0833 20.6257 11.3182C20.065 11.553 19.4211 11.6705 18.6938 11.6705C17.6257 11.6705 16.7658 11.447 16.1143 11C15.4628 10.5492 15.0745 9.92235 14.9495 9.11932L16.9552 8.92614C17.0461 9.32008 17.2393 9.61742 17.5347 9.81818C17.8302 10.0189 18.2147 10.1193 18.6882 10.1193C19.1768 10.1193 19.5688 10.0189 19.8643 9.81818C20.1635 9.61742 20.3132 9.36932 20.3132 9.07386C20.3132 8.82386 20.2166 8.61742 20.0234 8.45455C19.834 8.29167 19.5385 8.16667 19.137 8.07955L17.6484 7.76705C16.8113 7.5928 16.1919 7.29924 15.7904 6.88636C15.3889 6.4697 15.19 5.94318 15.1938 5.30682C15.19 4.76894 15.3359 4.30303 15.6313 3.90909C15.9306 3.51136 16.3454 3.20455 16.8757 2.98864C17.4097 2.76894 18.0253 2.65909 18.7222 2.65909C19.745 2.65909 20.5499 2.87689 21.137 3.3125C21.7279 3.74811 22.0935 4.33712 22.2336 5.07955ZM27.8351 2.77273V4.36364H22.818V2.77273H27.8351ZM24.0567 0.681818H26.1135V8.875C26.1135 9.15152 26.1552 9.36364 26.2385 9.51136C26.3256 9.6553 26.4393 9.75379 26.5794 9.80682C26.7196 9.85985 26.8749 9.88636 27.0453 9.88636C27.1741 9.88636 27.2915 9.87689 27.3976 9.85795C27.5074 9.83902 27.5908 9.82197 27.6476 9.80682L27.9942 11.4148C27.8843 11.4527 27.7271 11.4943 27.5226 11.5398C27.3218 11.5852 27.0756 11.6117 26.7839 11.6193C26.2688 11.6345 25.8048 11.5568 25.3919 11.3864C24.979 11.2121 24.6514 10.9432 24.4089 10.5795C24.1703 10.2159 24.0529 9.76136 24.0567 9.21591V0.681818ZM30.1937 14.7727C29.9134 14.7727 29.6539 14.75 29.4153 14.7045C29.1804 14.6629 28.9929 14.6136 28.8528 14.5568L29.33 12.9545C29.6293 13.0417 29.8963 13.0833 30.1312 13.0795C30.366 13.0758 30.5725 13.0019 30.7505 12.858C30.9323 12.7178 31.0857 12.483 31.2107 12.1534L31.3868 11.6818L28.2221 2.77273H30.4039L32.4153 9.36364H32.5062L34.5232 2.77273H36.7107L33.2164 12.5568C33.0535 13.0189 32.8376 13.4148 32.5687 13.7443C32.2997 14.0777 31.9702 14.3314 31.58 14.5057C31.1937 14.6837 30.7315 14.7727 30.1937 14.7727Z" fill="#9BB537"></path>
<path d="M41.852 2.77273V4.36364H36.8349V2.77273H41.852ZM38.0736 0.681818H40.1304V8.875C40.1304 9.15152 40.172 9.36364 40.2554 9.51136C40.3425 9.6553 40.4561 9.75379 40.5963 9.80682C40.7364 9.85985 40.8917 9.88636 41.0622 9.88636C41.191 9.88636 41.3084 9.87689 41.4145 9.85795C41.5243 9.83902 41.6076 9.82197 41.6645 9.80682L42.0111 11.4148C41.9012 11.4527 41.744 11.4943 41.5395 11.5398C41.3387 11.5852 41.0925 11.6117 40.8008 11.6193C40.2857 11.6345 39.8217 11.5568 39.4088 11.3864C38.9959 11.2121 38.6682 10.9432 38.4258 10.5795C38.1872 10.2159 38.0698 9.76136 38.0736 9.21591V0.681818ZM42.9321 11.5V2.77273H44.9264V4.22727H45.0174C45.1764 3.72348 45.4492 3.33523 45.8355 3.0625C46.2257 2.78598 46.6708 2.64773 47.1708 2.64773C47.2844 2.64773 47.4113 2.65341 47.5514 2.66477C47.6954 2.67235 47.8147 2.68561 47.9094 2.70455V4.59659C47.8223 4.56629 47.684 4.53977 47.4946 4.51705C47.309 4.49053 47.1291 4.47727 46.9549 4.47727C46.5799 4.47727 46.2427 4.55871 45.9435 4.72159C45.648 4.88068 45.4151 5.10227 45.2446 5.38636C45.0742 5.67045 44.9889 5.99811 44.9889 6.36932V11.5H42.9321ZM52.1401 11.6705C51.2651 11.6705 50.5095 11.4886 49.8731 11.125C49.2405 10.7576 48.7538 10.2386 48.4129 9.56818C48.072 8.89394 47.9015 8.10038 47.9015 7.1875C47.9015 6.28977 48.072 5.50189 48.4129 4.82386C48.7576 4.14205 49.2386 3.61174 49.8561 3.23295C50.4735 2.85038 51.1989 2.65909 52.0322 2.65909C52.5701 2.65909 53.0776 2.74621 53.5549 2.92045C54.036 3.09091 54.4602 3.35606 54.8276 3.71591C55.1989 4.07576 55.4905 4.53409 55.7026 5.09091C55.9148 5.64394 56.0208 6.30303 56.0208 7.06818V7.69886H48.8674V6.3125H54.0492C54.0454 5.91856 53.9602 5.56818 53.7936 5.26136C53.6269 4.95076 53.3939 4.70644 53.0947 4.52841C52.7992 4.35038 52.4545 4.26136 52.0606 4.26136C51.6401 4.26136 51.2708 4.36364 50.9526 4.56818C50.6345 4.76894 50.3864 5.03409 50.2083 5.36364C50.0341 5.68939 49.9451 6.04735 49.9413 6.4375V7.64773C49.9413 8.1553 50.0341 8.59091 50.2197 8.95455C50.4053 9.31439 50.6648 9.59091 50.9981 9.78409C51.3314 9.97348 51.7216 10.0682 52.1686 10.0682C52.4678 10.0682 52.7386 10.0265 52.9811 9.94318C53.2235 9.85606 53.4337 9.72917 53.6117 9.5625C53.7898 9.39583 53.9242 9.18939 54.0151 8.94318L55.9356 9.15909C55.8144 9.66667 55.5833 10.1098 55.2424 10.4886C54.9053 10.8636 54.4735 11.1553 53.947 11.3636C53.4204 11.5682 52.8182 11.6705 52.1401 11.6705ZM59.6322 11.6761C59.0792 11.6761 58.5811 11.5777 58.1379 11.3807C57.6985 11.1799 57.35 10.8845 57.0925 10.4943C56.8387 10.1042 56.7118 9.62311 56.7118 9.05114C56.7118 8.55871 56.8027 8.15152 56.9845 7.82955C57.1663 7.50758 57.4144 7.25 57.7288 7.05682C58.0432 6.86364 58.3974 6.7178 58.7913 6.61932C59.1891 6.51705 59.6 6.44318 60.0243 6.39773C60.5357 6.3447 60.9504 6.29735 61.2686 6.25568C61.5868 6.21023 61.8179 6.14205 61.9618 6.05114C62.1095 5.95644 62.1834 5.81061 62.1834 5.61364V5.57955C62.1834 5.15152 62.0565 4.82008 61.8027 4.58523C61.5489 4.35038 61.1834 4.23295 60.7061 4.23295C60.2023 4.23295 59.8027 4.3428 59.5072 4.5625C59.2156 4.7822 59.0186 5.04167 58.9163 5.34091L56.9959 5.06818C57.1474 4.53788 57.3974 4.0947 57.7459 3.73864C58.0944 3.37879 58.5205 3.10985 59.0243 2.93182C59.5281 2.75 60.0849 2.65909 60.6947 2.65909C61.1152 2.65909 61.5338 2.70833 61.9504 2.80682C62.3671 2.9053 62.7478 3.06818 63.0925 3.29545C63.4372 3.51894 63.7137 3.82386 63.922 4.21023C64.1341 4.59659 64.2402 5.07955 64.2402 5.65909V11.5H62.2629V10.3011H62.1947C62.0697 10.5436 61.8936 10.7708 61.6663 10.983C61.4429 11.1913 61.1607 11.3598 60.8197 11.4886C60.4826 11.6136 60.0868 11.6761 59.6322 11.6761ZM60.1663 10.1648C60.5792 10.1648 60.9372 10.0833 61.2402 9.92045C61.5432 9.75379 61.7762 9.53409 61.9391 9.26136C62.1057 8.98864 62.1891 8.69129 62.1891 8.36932V7.34091C62.1247 7.39394 62.0148 7.44318 61.8595 7.48864C61.708 7.53409 61.5375 7.57386 61.3482 7.60795C61.1588 7.64205 60.9713 7.67235 60.7857 7.69886C60.6 7.72538 60.4391 7.74811 60.3027 7.76705C59.9959 7.80871 59.7213 7.87689 59.4788 7.97159C59.2364 8.06629 59.0451 8.19886 58.905 8.36932C58.7648 8.53598 58.6947 8.75189 58.6947 9.01705C58.6947 9.39583 58.833 9.68182 59.1095 9.875C59.386 10.0682 59.7383 10.1648 60.1663 10.1648ZM70.0263 2.77273V4.36364H65.0093V2.77273H70.0263ZM66.2479 0.681818H68.3047V8.875C68.3047 9.15152 68.3464 9.36364 68.4297 9.51136C68.5169 9.6553 68.6305 9.75379 68.7706 9.80682C68.9108 9.85985 69.0661 9.88636 69.2366 9.88636C69.3653 9.88636 69.4828 9.87689 69.5888 9.85795C69.6987 9.83902 69.782 9.82197 69.8388 9.80682L70.1854 11.4148C70.0756 11.4527 69.9184 11.4943 69.7138 11.5398C69.5131 11.5852 69.2669 11.6117 68.9752 11.6193C68.46 11.6345 67.996 11.5568 67.5831 11.3864C67.1703 11.2121 66.8426 10.9432 66.6002 10.5795C66.3616 10.2159 66.2441 9.76136 66.2479 9.21591V0.681818ZM77.8792 5.07955L76.0042 5.28409C75.9512 5.0947 75.8584 4.91667 75.7258 4.75C75.597 4.58333 75.4228 4.44886 75.2031 4.34659C74.9834 4.24432 74.7145 4.19318 74.3963 4.19318C73.9682 4.19318 73.6084 4.28598 73.3167 4.47159C73.0288 4.6572 72.8868 4.89773 72.8906 5.19318C72.8868 5.44697 72.9796 5.65341 73.169 5.8125C73.3622 5.97159 73.6804 6.10227 74.1235 6.20455L75.6122 6.52273C76.4379 6.70076 77.0516 6.98295 77.4531 7.36932C77.8584 7.75568 78.0629 8.26136 78.0667 8.88636C78.0629 9.43561 77.902 9.92045 77.5838 10.3409C77.2694 10.7576 76.8319 11.0833 76.2713 11.3182C75.7107 11.553 75.0667 11.6705 74.3395 11.6705C73.2713 11.6705 72.4114 11.447 71.7599 11C71.1084 10.5492 70.7201 9.92235 70.5951 9.11932L72.6008 8.92614C72.6917 9.32008 72.8849 9.61742 73.1804 9.81818C73.4758 10.0189 73.8603 10.1193 74.3338 10.1193C74.8224 10.1193 75.2145 10.0189 75.5099 9.81818C75.8092 9.61742 75.9588 9.36932 75.9588 9.07386C75.9588 8.82386 75.8622 8.61742 75.669 8.45455C75.4796 8.29167 75.1842 8.16667 74.7826 8.07955L73.294 7.76705C72.4569 7.5928 71.8376 7.29924 71.436 6.88636C71.0345 6.4697 70.8357 5.94318 70.8395 5.30682C70.8357 4.76894 70.9815 4.30303 71.277 3.90909C71.5762 3.51136 71.991 3.20455 72.5213 2.98864C73.0554 2.76894 73.6709 2.65909 74.3679 2.65909C75.3906 2.65909 76.1955 2.87689 76.7826 3.3125C77.3735 3.74811 77.7391 4.33712 77.8792 5.07955ZM80.3898 11.625C80.0451 11.625 79.7496 11.5038 79.5034 11.2614C79.2572 11.0189 79.136 10.7235 79.1398 10.375C79.136 10.0341 79.2572 9.74242 79.5034 9.5C79.7496 9.25758 80.0451 9.13636 80.3898 9.13636C80.7231 9.13636 81.0129 9.25758 81.2591 9.5C81.5091 9.74242 81.636 10.0341 81.6398 10.375C81.636 10.6061 81.5754 10.8163 81.458 11.0057C81.3443 11.1951 81.1928 11.3466 81.0034 11.4602C80.8178 11.5701 80.6133 11.625 80.3898 11.625Z" fill="#050505"></path>
</svg>
